<?xml version="1.0" encoding="UTF-8"?>
<!-- Generator: visioncortex VTracer 0.6.5 -->
<svg version="1.1" xmlns="http://www.w3.org/2000/svg" width="1283" height="295" viewBox="0 0 1283 295" role="img" aria-labelledby="title">
<title id="title">truemail logo for dark backgrounds</title>
<path fill="#FFFFFF" d="M32 58 139 133h119L365 58v28l-94 71h-47v106h-52V157h-46L32 86Z"/>
<path d="M0 0 C0.56 -0 0.56 -0 3.41 -0.02 C4.65 -0.02 5.89 -0.02 7.16 -0.01 C8.48 -0.02 9.79 -0.02 11.15 -0.03 C14.8 -0.04 18.45 -0.05 22.11 -0.05 C26.04 -0.05 29.98 -0.06 33.92 -0.07 C42.53 -0.09 51.14 -0.1 59.76 -0.11 C65.13 -0.11 70.51 -0.12 75.88 -0.12 C90.76 -0.14 105.64 -0.16 120.51 -0.16 C121.47 -0.16 122.42 -0.16 123.4 -0.16 C125.33 -0.16 127.26 -0.16 129.19 -0.16 C129.67 -0.17 129.67 -0.17 132.09 -0.17 C133.05 -0.17 134.01 -0.17 135 -0.17 C150.56 -0.17 166.11 -0.2 181.67 -0.23 C197.63 -0.27 213.59 -0.29 229.56 -0.29 C238.52 -0.29 247.49 -0.3 256.45 -0.33 C264.09 -0.35 271.72 -0.36 279.35 -0.35 C283.25 -0.34 287.14 -0.34 291.04 -0.36 C295.26 -0.39 299.47 -0.37 303.69 -0.35 C304.31 -0.36 304.31 -0.36 307.44 -0.39 C316.65 -0.3 316.65 -0.3 319.74 2.66 C323.57 8.34 323.34 15.4 322.25 22.01 C320.14 28.27 313.29 30.99 307.84 33.92 C303.85 36.19 300.23 38.96 296.56 41.7 C295.03 42.8 293.51 43.91 291.99 45.01 C291.24 45.55 290.49 46.1 289.72 46.65 C283.35 51.25 276.92 55.75 270.49 60.26 C269.65 60.85 268.81 61.44 267.95 62.05 C265.3 63.91 262.65 65.77 259.99 67.64 C259.18 68.21 258.37 68.78 257.53 69.37 C256.74 69.92 255.96 70.47 255.15 71.03 C254.81 71.27 254.81 71.27 253.08 72.48 C252.23 73.07 251.37 73.66 250.49 74.26 C250.22 74.5 250.22 74.5 248.86 75.72 C241.52 81.63 233.8 81.15 224.86 81.13 C223.18 81.15 221.5 81.17 219.83 81.19 C215.29 81.25 210.75 81.26 206.21 81.26 C203.36 81.27 200.52 81.28 197.67 81.3 C187.73 81.35 177.78 81.38 167.83 81.37 C158.6 81.37 149.37 81.43 140.14 81.53 C132.18 81.61 124.23 81.64 116.27 81.63 C111.53 81.63 106.79 81.65 102.05 81.71 C65.81 82.17 65.81 82.17 54.66 71.42 C54.16 70.9 53.66 70.38 53.14 69.85 C50.1 66.92 46.55 64.67 43.06 62.32 C36.41 57.64 29.82 52.9 23.24 48.13 C18.76 44.88 14.26 41.67 9.74 38.49 C8.3 37.47 6.86 36.45 5.43 35.42 C2.36 33.21 -0.67 31.11 -4.01 29.33 C-7.19 27.5 -9.3 26.19 -11.51 23.26 C-13.03 17.11 -12.71 9.85 -10.71 3.87 C-7.95 0.18 -4.34 0.01 0 0 Z " fill="#7C84F0" transform="translate(43.507018089294434,31.739937782287598)"/>
<path d="M0 0 C3.15 1.23 5.87 2.42 8.61 4.4 C9.27 4.87 9.94 5.34 10.62 5.83 C11.32 6.34 12.03 6.85 12.75 7.38 C14.28 8.47 15.8 9.56 17.33 10.65 C17.72 10.93 17.72 10.93 19.69 12.34 C22.56 14.4 25.46 16.44 28.35 18.47 C38.73 25.76 49 33.2 59.27 40.65 C68.16 47.09 77.08 53.5 86.07 59.81 C91.07 63.32 96 66.91 100.9 70.57 C112.83 78.67 129.59 73.62 144 74 C144 109.31 144 144.62 144 181 C109.3 181.16 109.3 181.16 94.79 181.2 C84.75 181.22 74.72 181.25 64.69 181.3 C57.38 181.34 50.08 181.37 42.77 181.38 C38.9 181.38 35.03 181.39 31.17 181.42 C27.52 181.45 23.88 181.46 20.24 181.45 C18.27 181.45 16.29 181.48 14.32 181.5 C13.14 181.49 11.97 181.49 10.76 181.48 C9.74 181.48 8.72 181.49 7.66 181.49 C4.29 180.87 3.13 179.63 1 177 C-0.48 174.05 -0.12 171.41 -0.12 168.12 C-0.12 167.4 -0.12 166.68 -0.12 165.95 C-0.12 163.53 -0.12 161.12 -0.11 158.71 C-0.11 156.98 -0.11 155.26 -0.11 153.54 C-0.11 148.84 -0.11 144.15 -0.1 139.46 C-0.1 134.56 -0.09 129.66 -0.09 124.76 C-0.09 115.48 -0.08 106.2 -0.07 96.91 C-0.06 86.35 -0.06 75.78 -0.05 65.22 C-0.04 43.48 -0.02 21.74 0 0 Z " fill="#7C84F0" transform="translate(32,82)"/>
<path d="M0 0 C0.09 22.86 0.16 45.72 0.21 68.58 C0.23 79.2 0.26 89.81 0.3 100.43 C0.34 109.68 0.37 118.93 0.38 128.18 C0.38 133.08 0.39 137.98 0.42 142.88 C0.45 147.49 0.46 152.1 0.45 156.71 C0.45 158.4 0.46 160.09 0.48 161.79 C0.5 164.1 0.49 166.41 0.48 168.72 C0.48 170.01 0.49 171.3 0.49 172.64 C-0.1 176.65 -0.98 178.3 -4 181 C-6.68 181.62 -6.68 181.62 -9.8 181.6 C-10.39 181.6 -10.39 181.6 -13.38 181.62 C-14.68 181.6 -15.97 181.59 -17.31 181.57 C-18.69 181.57 -20.07 181.57 -21.45 181.57 C-25.19 181.57 -28.93 181.54 -32.68 181.51 C-36.59 181.48 -40.5 181.47 -44.41 181.47 C-51.82 181.45 -59.23 181.41 -66.64 181.36 C-76.65 181.29 -86.67 181.27 -96.68 181.24 C-112.45 181.19 -128.23 181.09 -144 181 C-144 145.69 -144 110.38 -144 74 C-131.13 73.67 -118.26 73.34 -105 73 C-98.59 68.92 -92.51 65.04 -86.56 60.44 C-80.52 55.83 -74.37 51.4 -68.12 47.06 C-59.35 40.96 -50.68 34.74 -42.03 28.47 C-38.48 25.9 -34.91 23.36 -31.34 20.82 C-28 18.44 -24.67 16.04 -21.34 13.63 C-20.94 13.34 -20.94 13.34 -18.91 11.87 C-17.34 10.74 -15.78 9.6 -14.21 8.46 C-2.53 0 -2.53 0 0 0 Z " fill="#7C84F0" transform="translate(365,82)"/>
<path d="M0 0 C1.21 -0.02 2.42 -0.04 3.66 -0.06 C13.53 -0.11 23.45 0.74 31.94 6.25 C32.72 6.75 33.51 7.24 34.32 7.75 C36.2 9.13 37.79 10.54 39.38 12.25 C42.29 10.9 44.63 9.33 47.12 7.31 C57.04 -0.23 68.06 0.05 80.06 0 C81.27 -0.02 82.47 -0.04 83.71 -0.06 C98 -0.12 108.52 2.83 119.12 12.5 C126.87 20.64 129.71 31.31 129.62 42.3 C129.62 43.06 129.62 43.82 129.62 44.61 C129.63 47.09 129.62 49.57 129.61 52.06 C129.6 53.79 129.6 55.53 129.6 57.26 C129.6 60.88 129.59 64.5 129.58 68.12 C129.56 72.77 129.56 77.42 129.56 82.07 C129.56 85.65 129.56 89.22 129.55 92.8 C129.54 94.51 129.54 96.23 129.54 97.94 C129.54 100.33 129.53 102.72 129.52 105.1 C129.52 105.82 129.52 106.53 129.52 107.26 C129.49 112.14 129.49 112.14 128.38 113.25 C125.24 113.5 122.08 113.44 118.94 113.44 C118.5 113.44 118.5 113.44 116.26 113.47 C115.41 113.48 114.56 113.48 113.69 113.48 C113.3 113.48 113.3 113.48 111.33 113.49 C109.38 113.25 109.38 113.25 107.38 111.25 C107.18 108.85 107.11 106.57 107.12 104.17 C107.12 103.81 107.12 103.81 107.11 101.97 C107.1 100.38 107.1 98.79 107.1 97.21 C107.1 94.69 107.09 92.18 107.07 89.67 C107.03 82.51 107 75.36 106.99 68.21 C106.99 63.84 106.96 59.47 106.93 55.1 C106.92 53.43 106.92 51.77 106.92 50.11 C106.97 33.8 106.97 33.8 102.38 27.25 C95.35 21.54 88.82 22.04 80.12 22 C79.02 21.98 77.91 21.96 76.77 21.94 C63.18 21.87 63.18 21.87 57.86 26.6 C53.12 31.92 52.08 36.87 52.06 43.79 C52.05 44.54 52.04 45.28 52.03 46.04 C51.99 48.48 51.98 50.92 51.96 53.36 C51.94 55.06 51.92 56.76 51.9 58.45 C51.85 62.91 51.81 67.37 51.77 71.82 C51.73 76.38 51.68 80.93 51.63 85.48 C51.54 94.4 51.45 103.33 51.38 112.25 C48.6 112.98 46.17 113.38 43.3 113.38 C42.55 113.38 41.8 113.39 41.03 113.39 C40.26 113.38 39.48 113.38 38.69 113.38 C38.3 113.38 38.3 113.38 36.31 113.39 C30.5 113.38 30.5 113.38 29.38 112.25 C29.27 109.96 29.23 107.67 29.22 105.38 C29.21 104.66 29.21 103.94 29.2 103.2 C29.19 101.63 29.18 100.07 29.18 98.5 C29.16 96.01 29.14 93.53 29.12 91.04 C29.06 83.98 29.01 76.91 28.97 69.84 C28.95 65.52 28.92 61.2 28.87 56.88 C28.86 55.24 28.85 53.6 28.85 51.95 C28.84 49.65 28.82 47.34 28.79 45.03 C28.78 43.72 28.78 42.4 28.77 41.05 C28.18 35.37 26.91 30.24 22.5 26.38 C15.5 21.62 9.31 21.88 1.06 21.88 C0.46 21.86 0.46 21.86 -2.57 21.8 C-10.52 21.77 -16.46 22.3 -22.46 28 C-22.83 28.55 -23.19 29.11 -23.56 29.69 C-23.94 30.24 -24.32 30.8 -24.71 31.37 C-26.9 35.88 -26.77 40.67 -26.81 45.59 C-26.82 46.32 -26.83 47.04 -26.84 47.78 C-26.86 49.34 -26.87 50.89 -26.89 52.45 C-26.91 54.91 -26.93 57.38 -26.96 59.84 C-27.03 65.95 -27.09 72.06 -27.15 78.17 C-27.2 83.34 -27.26 88.52 -27.32 93.69 C-27.34 96.12 -27.36 98.55 -27.38 100.98 C-27.4 102.46 -27.42 103.94 -27.44 105.42 C-27.44 106.07 -27.44 106.07 -27.47 109.35 C-27.62 112.25 -27.62 112.25 -28.62 113.25 C-30.11 113.34 -31.61 113.36 -33.1 113.35 C-34 113.34 -34.9 113.34 -35.82 113.34 C-36.3 113.33 -36.3 113.33 -38.69 113.31 C-39.64 113.31 -40.59 113.3 -41.56 113.3 C-43.92 113.29 -46.27 113.27 -48.62 113.25 C-49.48 103.34 -49.76 93.56 -49.64 83.61 C-49.64 82.9 -49.63 82.19 -49.62 81.45 C-49.59 77.69 -49.54 73.93 -49.49 70.17 C-49.44 66.33 -49.42 62.48 -49.4 58.64 C-49.38 55.64 -49.34 52.64 -49.3 49.64 C-49.28 48.23 -49.27 46.81 -49.26 45.39 C-49.22 32.21 -46.58 21.26 -37.62 11.25 C-26.22 1.37 -14.61 0.06 0 0 Z " fill="#7C84F0" transform="translate(902.625,112.75)"/>
<path d="M0 0 C0.52 -0 0.52 -0 3.13 -0.02 C5.3 -0.03 7.48 -0.03 9.65 -0.03 C12.96 -0.04 16.26 -0.08 19.57 -0.11 C21.69 -0.12 23.81 -0.12 25.94 -0.12 C26.91 -0.14 27.89 -0.15 28.9 -0.17 C38.94 -0.1 47.73 3.27 55.13 10.17 C66.98 22.41 67.34 36.15 67.29 52.27 C67.3 53.63 67.3 54.98 67.3 56.33 C67.3 57.6 67.3 58.87 67.3 60.18 C67.3 61.33 67.3 62.49 67.3 63.69 C67.17 66.34 67.17 66.34 66.17 67.34 C63.49 67.43 60.84 67.46 58.16 67.45 C57.32 67.45 56.48 67.45 55.62 67.45 C52.83 67.45 50.04 67.44 47.26 67.43 C45.33 67.43 43.4 67.43 41.48 67.43 C36.4 67.43 31.31 67.42 26.23 67.4 C21.05 67.39 15.87 67.39 10.69 67.38 C0.52 67.37 -9.66 67.36 -19.83 67.34 C-19.54 69.43 -19.24 71.52 -18.94 73.61 C-18.77 74.78 -18.61 75.94 -18.43 77.14 C-17.42 82.51 -15.35 85.15 -11.13 88.45 C-5.23 91.7 1.71 90.92 8.25 90.91 C9.72 90.92 11.19 90.94 12.66 90.95 C16.5 90.99 20.34 91.01 24.19 91.02 C30.36 91.04 36.53 91.09 42.7 91.14 C44.86 91.16 47.01 91.17 49.17 91.17 C49.82 91.18 49.82 91.18 53.11 91.19 C54.26 91.2 55.41 91.2 56.59 91.2 C59.17 91.34 59.17 91.34 60.17 92.34 C60.27 93.74 60.3 95.15 60.3 96.55 C60.3 97.4 60.3 98.25 60.3 99.13 C60.3 100.02 60.3 100.92 60.29 101.84 C60.3 102.73 60.3 103.62 60.3 104.54 C60.3 105.39 60.3 106.24 60.3 107.12 C60.3 107.9 60.3 108.69 60.3 109.49 C60.17 111.34 60.17 111.34 59.17 112.34 C57.17 112.45 55.17 112.49 53.17 112.5 C51.88 112.51 50.6 112.52 49.27 112.53 C47.86 112.53 46.44 112.54 45.02 112.54 C43.57 112.54 42.12 112.55 40.66 112.56 C37.61 112.57 34.55 112.57 31.5 112.58 C27.61 112.58 23.72 112.61 19.84 112.63 C16.83 112.65 13.82 112.66 10.82 112.66 C9.39 112.66 7.95 112.67 6.52 112.68 C-7.19 112.8 -19.35 111.02 -29.84 101.52 C-41.31 89.25 -42.18 74.65 -42.09 58.62 C-42.08 56.4 -42.09 54.19 -42.11 51.98 C-42.12 36.34 -40.97 22.13 -29.85 10.16 C-20.88 2.07 -11.69 0.03 0 0 Z M-15.67 26.15 C-16.03 26.73 -16.4 27.3 -16.77 27.9 C-17.15 28.48 -17.53 29.06 -17.92 29.65 C-21.2 35.72 -19.83 39.17 -19.83 47.34 C1.62 47.34 23.07 47.34 45.17 47.34 C45.17 31.58 45.17 31.58 41.17 26.34 C38.67 23.96 38.67 23.96 36.17 22.34 C35.63 21.98 35.09 21.62 34.54 21.26 C31.01 19.88 27.48 20.01 23.75 20 C22.93 19.99 22.11 19.99 21.26 19.98 C19.53 19.97 17.8 19.97 16.07 19.97 C13.44 19.96 10.81 19.92 8.18 19.89 C6.5 19.88 4.81 19.88 3.12 19.88 C2.34 19.86 1.57 19.85 0.77 19.83 C-5.59 19.88 -11.07 21.61 -15.67 26.15 Z " fill="#7C84F0" transform="translate(767.83203125,113.6640625)"/>
<path d="M0 0 C0.83 -0.01 1.65 -0.01 2.51 -0.02 C4.25 -0.03 5.99 -0.03 7.74 -0.04 C10.37 -0.05 13 -0.08 15.63 -0.11 C30.11 -0.2 43.38 0.96 54.46 11.31 C66 23.65 66.51 36.77 66.44 52.89 C66.44 54.6 66.44 56.31 66.44 58.02 C66.43 61.59 66.43 65.16 66.41 68.73 C66.4 73.31 66.39 77.89 66.39 82.47 C66.39 85.99 66.39 89.52 66.38 93.04 C66.38 94.73 66.37 96.42 66.37 98.11 C66.37 100.46 66.36 102.81 66.35 105.16 C66.35 105.87 66.35 106.57 66.35 107.29 C66.32 112.09 66.32 112.09 65.21 113.2 C63.82 113.3 62.42 113.33 61.02 113.34 C60.18 113.34 59.33 113.34 58.46 113.34 C57.57 113.34 56.69 113.33 55.77 113.33 C54.88 113.33 54 113.34 53.09 113.34 C52.24 113.34 51.4 113.34 50.52 113.34 C49.74 113.33 48.97 113.33 48.16 113.33 C46.21 113.2 46.21 113.2 44.21 112.2 C44.21 111.73 44.21 111.73 44.2 109.33 C44.16 100.39 44.1 91.44 44.02 82.5 C43.98 77.9 43.95 73.3 43.94 68.7 C43.92 64.26 43.89 59.82 43.84 55.38 C43.82 53.69 43.82 52 43.82 50.31 C43.8 33.59 43.8 33.59 39.21 27.2 C32.37 20.62 22.01 21.47 13.19 21.61 C10.71 21.64 8.23 21.63 5.75 21.61 C-12.68 21.62 -12.68 21.62 -19.71 27.92 C-25.05 33.51 -26.1 39.6 -26.09 47.16 C-26.1 47.91 -26.1 48.66 -26.11 49.43 C-26.11 51.01 -26.11 52.59 -26.11 54.17 C-26.11 56.56 -26.13 58.96 -26.15 61.35 C-26.16 62.89 -26.16 64.43 -26.16 65.98 C-26.17 66.68 -26.17 67.39 -26.18 68.11 C-26.12 74.59 -24.63 80.02 -20.42 85.02 C-15.31 89.27 -11.13 91.28 -4.5 91.39 C-3.66 91.41 -2.82 91.43 -1.96 91.44 C-1.07 91.46 -0.17 91.47 0.75 91.48 C1.67 91.5 2.6 91.52 3.55 91.54 C7.5 91.62 11.45 91.69 15.41 91.76 C18.29 91.81 21.18 91.86 24.06 91.92 C24.96 91.94 25.86 91.95 26.79 91.96 C33.09 92.09 33.09 92.09 34.21 93.2 C34.31 94.61 34.34 96.01 34.34 97.42 C34.34 98.27 34.34 99.12 34.34 100 C34.34 100.89 34.34 101.78 34.33 102.7 C34.34 103.6 34.34 104.49 34.34 105.41 C34.34 106.26 34.34 107.11 34.34 107.98 C34.34 108.77 34.34 109.55 34.34 110.36 C34.21 112.2 34.21 112.2 33.21 113.2 C31.84 113.31 30.47 113.34 29.11 113.35 C28.23 113.35 27.36 113.36 26.46 113.37 C25.51 113.37 24.56 113.37 23.58 113.37 C22.61 113.37 21.63 113.38 20.62 113.38 C18.55 113.39 16.47 113.39 14.4 113.39 C11.25 113.39 8.1 113.41 4.95 113.43 C2.93 113.43 0.91 113.43 -1.11 113.43 C-1.57 113.44 -1.57 113.44 -3.94 113.46 C-15.94 113.41 -27.1 110.35 -36.13 102.06 C-45.3 91.8 -48.92 80.51 -49 66.95 C-49 66.16 -49.01 65.38 -49.01 64.57 C-49.02 62.91 -49.03 61.26 -49.03 59.6 C-49.04 57.11 -49.07 54.61 -49.11 52.12 C-49.21 36.93 -47.26 23.88 -36.42 12.39 C-25.95 2.64 -13.98 0.08 0 0 Z " fill="#7C84F0" transform="translate(1099.79296875,112.796875)"/>
<path d="M0 0 C6.93 0 13.86 0 21 0 C21 1.13 21 1.13 21.03 6.85 C21.06 14.34 21.12 21.83 21.18 29.31 C21.22 33.85 21.26 38.39 21.27 42.93 C21.29 47.31 21.32 51.69 21.37 56.08 C21.38 57.74 21.39 59.41 21.39 61.08 C21.41 79.25 21.41 79.25 27.48 85.53 C33.91 91.24 41.25 90.29 49.31 90.35 C50.89 90.37 52.46 90.39 54.03 90.43 C69.79 90.81 69.79 90.81 75.62 86.42 C81.41 80.45 82.11 73.72 82.21 65.73 C82.22 65.02 82.23 64.31 82.24 63.57 C82.27 61.23 82.29 58.89 82.32 56.54 C82.34 54.91 82.36 53.28 82.38 51.65 C82.43 47.38 82.48 43.1 82.53 38.82 C82.58 34.45 82.64 30.08 82.69 25.71 C82.8 17.14 82.9 8.57 83 0 C89.93 0 96.86 0 104 0 C104.09 9.82 104.16 19.63 104.21 29.45 C104.23 34 104.26 38.56 104.3 43.12 C104.35 47.53 104.37 51.94 104.38 56.35 C104.39 58.02 104.4 59.69 104.42 61.37 C104.61 76.48 102.66 89.69 91.96 101.19 C83.1 109.7 73.4 112.15 61.33 112.17 C60.61 112.17 59.88 112.17 59.14 112.18 C57.62 112.18 56.09 112.19 54.57 112.19 C52.27 112.19 49.97 112.21 47.67 112.22 C33.3 112.28 21.63 110.77 10.63 100.79 C0.01 89.14 -0.43 75.65 -0.29 60.74 C-0.29 58.99 -0.28 57.23 -0.28 55.47 C-0.27 50.88 -0.24 46.29 -0.21 41.69 C-0.18 36.99 -0.16 32.29 -0.15 27.59 C-0.11 18.4 -0.06 9.2 0 0 Z " fill="#7C84F0" transform="translate(606,114)"/>
<path d="M0 0 C6.93 0 13.86 0 21 0 C21 12.21 21 24.42 21 37 C32.88 37 44.76 37 57 37 C58.58 40.16 58.14 43.54 58.12 47 C58.13 47.74 58.13 48.47 58.14 49.23 C58.13 54.75 58.13 54.75 57 57 C45.12 57 33.24 57 21 57 C21.1 63.81 21.2 70.63 21.32 77.44 C21.36 79.76 21.39 82.07 21.42 84.39 C21.47 87.72 21.53 91.06 21.59 94.4 C21.6 95.43 21.61 96.45 21.62 97.51 C21.83 107.62 22.75 115.75 30.19 123.19 C37.5 127.9 45.56 128.6 54.06 129.19 C54.59 129.23 54.59 129.23 57.26 129.44 C59.84 129.63 62.42 129.82 65 130 C65.03 133.15 65.05 136.29 65.06 139.44 C65.07 140.34 65.08 141.23 65.09 142.16 C65.09 143.01 65.09 143.87 65.1 144.75 C65.1 145.54 65.11 146.33 65.11 147.14 C65 149 65 149 64 150 C45.94 151.7 27.81 149.66 12.98 138.48 C4.77 131.14 0.47 119.91 -0.17 109.07 C-0.23 105.74 -0.23 102.42 -0.2 99.09 C-0.19 97.88 -0.19 96.67 -0.19 95.43 C-0.18 91.6 -0.15 87.77 -0.12 83.94 C-0.11 81.33 -0.11 78.72 -0.1 76.11 C-0.08 69.74 -0.04 63.37 0 57 C-4.29 57 -8.58 57 -13 57 C-13.03 53.85 -13.05 50.71 -13.06 47.56 C-13.07 46.66 -13.08 45.77 -13.09 44.84 C-13.09 43.99 -13.09 43.13 -13.1 42.25 C-13.1 41.86 -13.1 41.86 -13.11 39.86 C-13 38 -13 38 -12 37 C-8.04 37 -4.08 37 0 37 C0 24.79 0 12.58 0 0 Z " fill="#7C84F0" transform="translate(444,76)"/>
<path d="M0 0 C0.83 0.01 1.67 0.01 2.52 0.02 C3.42 0.02 4.32 0.02 5.25 0.03 C5.72 0.03 5.72 0.03 8.11 0.05 C9.06 0.06 10.01 0.06 10.99 0.06 C13.34 0.08 15.7 0.09 18.05 0.11 C19.13 3.37 19.18 5.73 19.18 9.16 C19.19 10.42 19.19 11.68 19.2 12.98 C19.2 14.39 19.2 15.79 19.2 17.19 C19.2 18.67 19.2 20.14 19.21 21.62 C19.21 25.63 19.22 29.63 19.22 33.64 C19.22 36.98 19.22 40.33 19.23 43.67 C19.23 51.55 19.24 59.43 19.24 67.32 C19.24 75.46 19.25 83.6 19.26 91.74 C19.27 98.73 19.28 105.71 19.28 112.69 C19.28 116.87 19.28 121.04 19.29 125.21 C19.3 129.14 19.3 133.06 19.3 136.98 C19.29 138.42 19.3 139.87 19.3 141.31 C19.31 143.27 19.3 145.24 19.3 147.2 C19.3 148.3 19.3 149.4 19.3 150.53 C19.05 153.11 19.05 153.11 17.05 155.11 C15.1 155.36 15.1 155.36 12.73 155.34 C11.89 155.34 11.04 155.34 10.17 155.34 C9.28 155.33 8.4 155.31 7.49 155.3 C6.6 155.3 5.71 155.3 4.79 155.3 C-1.81 155.25 -1.81 155.25 -2.95 154.11 C-3.05 152.14 -3.08 150.17 -3.08 148.19 C-3.08 146.9 -3.08 145.62 -3.08 144.29 C-3.08 142.85 -3.08 141.41 -3.08 139.97 C-3.08 138.47 -3.08 136.96 -3.08 135.45 C-3.09 131.35 -3.09 127.25 -3.08 123.15 C-3.08 118.87 -3.08 114.59 -3.09 110.3 C-3.09 103.11 -3.08 95.92 -3.08 88.72 C-3.07 80.4 -3.08 72.07 -3.08 63.74 C-3.09 56.6 -3.09 49.47 -3.08 42.33 C-3.08 38.06 -3.08 33.79 -3.09 29.52 C-3.09 25.51 -3.09 21.5 -3.08 17.49 C-3.08 16.01 -3.08 14.53 -3.08 13.06 C-3.08 11.05 -3.08 9.04 -3.08 7.04 C-3.08 5.91 -3.08 4.78 -3.08 3.62 C-2.9 0.17 -2.9 0.17 0 0 Z " fill="#7C84F0" transform="translate(1231.949462890625,70.886474609375)"/>
<path d="M0 0 C0.77 -0 1.54 -0 2.33 -0 C3.95 -0 5.57 -0 7.19 0 C9.68 0.01 12.17 0 14.65 -0 C16.23 -0 17.8 -0 19.38 0 C20.12 -0 20.87 -0 21.64 -0.01 C26.87 0.02 26.87 0.02 27.99 1.13 C28.09 2.46 28.12 3.8 28.12 5.13 C28.12 5.94 28.12 6.74 28.12 7.57 C28.12 8.42 28.12 9.26 28.11 10.13 C28.12 10.98 28.12 11.82 28.12 12.7 C28.12 13.5 28.12 14.3 28.12 15.13 C28.12 15.88 28.12 16.62 28.12 17.38 C27.99 19.13 27.99 19.13 26.99 20.13 C24.86 20.24 22.74 20.29 20.61 20.31 C19.95 20.32 19.95 20.32 16.63 20.38 C14.54 20.42 12.45 20.45 10.35 20.46 C-4.24 20.57 -4.24 20.57 -11.01 25.13 C-15.3 30.52 -16.16 34.74 -16.2 41.43 C-16.21 42.17 -16.22 42.91 -16.23 43.68 C-16.24 45.28 -16.26 46.89 -16.27 48.49 C-16.29 51.03 -16.32 53.57 -16.35 56.11 C-16.42 62.41 -16.48 68.71 -16.54 75.01 C-16.59 80.34 -16.64 85.66 -16.7 90.99 C-16.73 93.5 -16.75 96 -16.77 98.51 C-16.79 100.04 -16.81 101.56 -16.82 103.09 C-16.83 103.79 -16.83 104.5 -16.83 105.22 C-16.9 110.02 -16.9 110.02 -18.01 111.13 C-19.57 111.22 -21.14 111.24 -22.7 111.23 C-23.65 111.23 -24.59 111.22 -25.56 111.22 C-26.56 111.21 -27.55 111.2 -28.57 111.2 C-29.57 111.19 -30.57 111.19 -31.6 111.18 C-34.07 111.17 -36.54 111.15 -39.01 111.13 C-39.08 101.73 -39.13 92.32 -39.17 82.91 C-39.18 78.54 -39.2 74.17 -39.24 69.81 C-39.27 65.58 -39.29 61.35 -39.3 57.12 C-39.3 55.52 -39.31 53.92 -39.33 52.32 C-39.48 36.67 -38.38 22.49 -27.35 10.3 C-19.5 2.99 -10.5 -0.03 0 0 Z " fill="#7C84F0" transform="translate(564.01171875,113.8671875)"/>
<path d="M0 0 C1.01 -0 2.02 -0.01 3.05 -0.01 C6.12 0.12 6.12 0.12 12.12 1.12 C12.12 37.75 12.12 74.38 12.12 112.12 C7.3 112.93 3.16 113.26 -1.69 113.25 C-2.37 113.25 -3.05 113.26 -3.75 113.26 C-8.75 113.25 -8.75 113.25 -9.88 112.12 C-9.97 110.68 -10 109.24 -10 107.79 C-10 106.86 -10 105.92 -10 104.96 C-10 103.92 -9.99 102.89 -9.99 101.82 C-9.99 100.74 -9.99 99.66 -9.99 98.54 C-9.99 94.94 -9.98 91.34 -9.97 87.75 C-9.97 85.26 -9.97 82.77 -9.97 80.28 C-9.96 74.39 -9.96 68.51 -9.95 62.62 C-9.93 55.25 -9.93 47.89 -9.92 40.53 C-9.91 27.4 -9.9 14.26 -9.88 1.12 C-6.5 0.21 -3.51 -0.01 0 0 Z " fill="#7C84F0" transform="translate(1195.875,112.875)"/>
<path d="M0 0 C3.66 2.17 6.23 4.79 8.5 8.38 C9.51 13.66 8.7 17.62 6.31 22.31 C2.8 26.39 -0.17 27.8 -5.5 28.38 C-10.89 27.8 -13.85 26.02 -17.88 22.44 C-20.55 18.97 -20.65 15.67 -20.43 11.4 C-19.62 6.88 -17.3 4.15 -13.94 1.19 C-9.34 -1.63 -5.06 -1.37 0 0 Z " fill="#7C84F0" transform="translate(1203,68)"/>
</svg>
